<svg width="15" height="13" fill="none" xmlns="http://www.w3.org/2000/svg"><path fill-rule="evenodd" clip-rule="evenodd" d="M13.5.25a.75.75 0 01.75.75v6.75a.75.75 0 01-.75.75h-.75a.75.75 0 01-.75-.75V1a.75.75 0 01.75-.75h.75zM1.977 8.79C1.302 8.79.75 8.2.75 7.478.76 6.473.784 5.92.822 5.816c.039-.103.67-1.696 1.892-4.777C2.898.578 4.41.25 4.9.25h4.31c.675 0 1.665.591 1.665 1.314V8.5l-4.07 4.212-.003.003a.939.939 0 01-1.327.018c-.123-.197-.245-.46-.245-.723v-.197l.613-3.022H1.977z" fill="#BCBFC2"/></svg>