<svg width="15" height="13" fill="none" xmlns="http://www.w3.org/2000/svg"><path fill-rule="evenodd" clip-rule="evenodd" d="M1.5 12.75A.75.75 0 01.75 12V5.25a.75.75 0 01.75-.75h.75a.75.75 0 01.75.75V12a.75.75 0 01-.75.75H1.5zm11.523-8.54c.675 0 1.227.59 1.227 1.313-.01 1.005-.034 1.558-.072 1.662-.039.103-.67 1.696-1.892 4.776-.184.46-1.696.789-2.187.789H5.79c-.675 0-1.665-.591-1.665-1.314V4.5L8.195.288l.003-.003A.939.939 0 019.525.267c.123.198.245.46.245.723v.197L9.157 4.21h3.866z" fill="#BCBFC2"/></svg>