<svg width="18" height="18" fill="none" xmlns="http://www.w3.org/2000/svg"><path fill-rule="evenodd" clip-rule="evenodd" d="M9 15.476c.415 0 .75.335.75.75v1.025A.748.748 0 019 18a.748.748 0 01-.75-.75v-1.024c0-.415.335-.75.75-.75zM9 2.524a.748.748 0 01-.75-.75V.75a.749.749 0 111.5 0v1.024c0 .415-.335.75-.75.75zm8.25 5.727a.748.748 0 110 1.499h-1.024a.748.748 0 01-.75-.75c0-.415.335-.75.75-.75h1.025zm-15.476 0a.749.749 0 110 1.499H.75A.748.748 0 010 9c0-.415.334-.75.75-.75h1.024zM14.64 4.423a.75.75 0 11-1.062-1.062l.724-.723a.75.75 0 011.061 0 .75.75 0 010 1.061l-.723.724zM3.36 13.577a.75.75 0 111.062 1.062l-.724.723a.75.75 0 01-1.061 0 .75.75 0 010-1.061l.723-.724zm11.278 0l.723.724a.75.75 0 010 1.061.75.75 0 01-1.061 0l-.724-.723a.75.75 0 111.062-1.062zM3.36 4.423l-.723-.724a.75.75 0 010-1.061.75.75 0 011.061 0l.724.723a.75.75 0 010 1.062.75.75 0 01-1.062 0zM9 3.36A5.647 5.647 0 0114.639 9 5.645 5.645 0 019 14.639 5.645 5.645 0 013.361 9 5.645 5.645 0 019 3.361zm0 9.775A4.14 4.14 0 0013.136 9 4.14 4.14 0 009 4.864 4.14 4.14 0 004.864 9 4.14 4.14 0 009 13.136z" fill="#BCBFC2"/></svg>